<svg width="24" height="24" viewBox="0 0 24 24" fill="none" xmlns="http://www.w3.org/2000/svg">
<path d="M15.7494 21C15.7494 21.1989 15.6704 21.3897 15.5298 21.5303C15.3891 21.671 15.1984 21.75 14.9994 21.75H8.99944C8.80053 21.75 8.60976 21.671 8.46911 21.5303C8.32846 21.3897 8.24944 21.1989 8.24944 21C8.24944 20.8011 8.32846 20.6103 8.46911 20.4697C8.60976 20.329 8.80053 20.25 8.99944 20.25H14.9994C15.1984 20.25 15.3891 20.329 15.5298 20.4697C15.6704 20.6103 15.7494 20.8011 15.7494 21ZM20.7979 18C20.6678 18.2292 20.4788 18.4196 20.2506 18.5514C20.0223 18.6833 19.763 18.7518 19.4994 18.75H4.49944C4.23576 18.7496 3.97683 18.6798 3.74874 18.5475C3.52066 18.4151 3.33149 18.225 3.2003 17.9963C3.06911 17.7676 3.00053 17.5083 3.00147 17.2446C3.00242 16.9809 3.07286 16.7222 3.20569 16.4944C3.726 15.5981 4.49944 13.0631 4.49944 9.75C4.49944 7.76088 5.28962 5.85322 6.69614 4.4467C8.10266 3.04018 10.0103 2.25 11.9994 2.25C13.9886 2.25 15.8962 3.04018 17.3027 4.4467C18.7093 5.85322 19.4994 7.76088 19.4994 9.75C19.4994 13.0622 20.2738 15.5981 20.7941 16.4944C20.9283 16.7225 20.9993 16.9822 20.9998 17.2468C21.0002 17.5114 20.9302 17.7714 20.7969 18H20.7979ZM19.4994 17.25C18.7748 16.0059 17.9994 13.1297 17.9994 9.75C17.9994 8.1587 17.3673 6.63258 16.2421 5.50736C15.1169 4.38214 13.5907 3.75 11.9994 3.75C10.4081 3.75 8.88202 4.38214 7.7568 5.50736C6.63158 6.63258 5.99944 8.1587 5.99944 9.75C5.99944 13.1306 5.22319 16.0069 4.49944 17.25H19.4994Z" fill="#667185"/>
</svg>
