<svg width="20" height="20" viewBox="0 0 20 20" fill="none" xmlns="http://www.w3.org/2000/svg">
<path d="M12.4995 3.125C11.2227 3.12598 9.97129 3.48214 8.88533 4.15364C7.79936 4.82514 6.92161 5.78551 6.35024 6.92734C5.67053 6.82821 4.97767 6.8702 4.3149 7.05069C3.65212 7.23117 3.03365 7.54629 2.49804 7.97638C1.96244 8.40647 1.52121 8.94231 1.20186 9.55047C0.882513 10.1586 0.691902 10.8261 0.641918 11.5112C0.591933 12.1963 0.683648 12.8843 0.911341 13.5324C1.13903 14.1804 1.49782 14.7747 1.96532 15.2779C2.43283 15.7812 2.99901 16.1828 3.62857 16.4575C4.25813 16.7323 4.93755 16.8744 5.62446 16.875H12.4995C14.3228 16.875 16.0715 16.1507 17.3608 14.8614C18.6501 13.572 19.3745 11.8234 19.3745 10C19.3745 8.17664 18.6501 6.42795 17.3608 5.13864C16.0715 3.84933 14.3228 3.125 12.4995 3.125ZM12.4995 15.625H5.62446C4.6299 15.625 3.67607 15.2299 2.97281 14.5267C2.26955 13.8234 1.87446 12.8696 1.87446 11.875C1.87446 10.8804 2.26955 9.92661 2.97281 9.22335C3.67607 8.52009 4.6299 8.125 5.62446 8.125C5.7104 8.125 5.79634 8.125 5.88149 8.13359C5.71057 8.74099 5.62409 9.36902 5.62446 10C5.62446 10.1658 5.69031 10.3247 5.80752 10.4419C5.92473 10.5592 6.0837 10.625 6.24946 10.625C6.41522 10.625 6.57419 10.5592 6.6914 10.4419C6.80861 10.3247 6.87446 10.1658 6.87446 10C6.87446 8.88748 7.20436 7.79994 7.82245 6.87492C8.44053 5.94989 9.31903 5.22892 10.3469 4.80318C11.3747 4.37743 12.5057 4.26604 13.5968 4.48308C14.688 4.70012 15.6903 5.23585 16.4769 6.02252C17.2636 6.80919 17.7993 7.81147 18.0164 8.90262C18.2334 9.99376 18.122 11.1248 17.6963 12.1526C17.2705 13.1804 16.5496 14.0589 15.6245 14.677C14.6995 15.2951 13.612 15.625 12.4995 15.625Z" fill="#94A3B8"/>
</svg>
