<svg width="27" height="27" viewBox="0 0 27 27" fill="none" xmlns="http://www.w3.org/2000/svg">
<path d="M21.9893 20.1983C22.227 20.4361 22.3606 20.7585 22.3606 21.0948C22.3606 21.431 22.227 21.7535 21.9893 21.9913C21.7515 22.229 21.429 22.3626 21.0928 22.3626C20.7565 22.3626 20.434 22.229 20.1963 21.9913L13.5001 15.2929L6.80176 21.9892C6.56399 22.2269 6.24152 22.3605 5.90527 22.3605C5.56902 22.3605 5.24655 22.2269 5.00879 21.9892C4.77102 21.7514 4.63745 21.4289 4.63745 21.0927C4.63745 20.7564 4.77102 20.4339 5.00879 20.1962L11.7071 13.5L5.0109 6.80165C4.77313 6.56389 4.63956 6.24141 4.63956 5.90517C4.63956 5.56892 4.77313 5.24644 5.0109 5.00868C5.24866 4.77092 5.57113 4.63735 5.90738 4.63735C6.24363 4.63735 6.5661 4.77092 6.80387 5.00868L13.5001 11.707L20.1984 5.00763C20.4362 4.76986 20.7586 4.63629 21.0949 4.63629C21.4311 4.63629 21.7536 4.76986 21.9914 5.00763C22.2291 5.24539 22.3627 5.56786 22.3627 5.90411C22.3627 6.24036 22.2291 6.56283 21.9914 6.8006L15.293 13.5L21.9893 20.1983Z" fill="#676E7E"/>
</svg>
