<svg width="20" height="20" viewBox="0 0 20 20" fill="none" xmlns="http://www.w3.org/2000/svg">
<path d="M13.6875 3.75V3.8125H13.75H16.875C17.0242 3.8125 17.1673 3.87176 17.2727 3.97725C17.3782 4.08274 17.4375 4.22582 17.4375 4.375C17.4375 4.52418 17.3782 4.66726 17.2727 4.77275C17.1673 4.87824 17.0242 4.9375 16.875 4.9375H16.25H16.1875V5V16.25C16.1875 16.5649 16.0624 16.867 15.8397 17.0897C15.617 17.3124 15.3149 17.4375 15 17.4375H5C4.68506 17.4375 4.38301 17.3124 4.16031 17.0897C3.93761 16.867 3.8125 16.5649 3.8125 16.25V5V4.9375H3.75H3.125C2.97582 4.9375 2.83274 4.87824 2.72725 4.77275C2.62176 4.66726 2.5625 4.52418 2.5625 4.375C2.5625 4.22582 2.62176 4.08274 2.72725 3.97725C2.83274 3.87176 2.97582 3.8125 3.125 3.8125H6.25H6.3125V3.75V3.125C6.3125 2.6443 6.50346 2.18328 6.84337 1.84337C7.18328 1.50346 7.64429 1.3125 8.125 1.3125H11.875C12.3557 1.3125 12.8167 1.50346 13.1566 1.84337C13.4965 2.18328 13.6875 2.6443 13.6875 3.125V3.75ZM12.5 3.8125H12.5625V3.75V3.125C12.5625 2.94266 12.4901 2.7678 12.3611 2.63886C12.2322 2.50993 12.0573 2.4375 11.875 2.4375H8.125C7.94266 2.4375 7.7678 2.50993 7.63886 2.63886C7.50993 2.7678 7.4375 2.94266 7.4375 3.125V3.75V3.8125H7.5H12.5ZM15 16.3125H15.0625V16.25V5V4.9375H15H5H4.9375V5V16.25V16.3125H5H15ZM8.6875 8.125V13.125C8.6875 13.2742 8.62824 13.4173 8.52275 13.5227C8.41726 13.6282 8.27418 13.6875 8.125 13.6875C7.97582 13.6875 7.83274 13.6282 7.72725 13.5227C7.62176 13.4173 7.5625 13.2742 7.5625 13.125V8.125C7.5625 7.97582 7.62176 7.83274 7.72725 7.72725C7.83274 7.62176 7.97582 7.5625 8.125 7.5625C8.27418 7.5625 8.41726 7.62176 8.52275 7.72725C8.62824 7.83274 8.6875 7.97582 8.6875 8.125ZM12.4375 8.125V13.125C12.4375 13.2742 12.3782 13.4173 12.2727 13.5227C12.1673 13.6282 12.0242 13.6875 11.875 13.6875C11.7258 13.6875 11.5827 13.6282 11.4773 13.5227C11.3718 13.4173 11.3125 13.2742 11.3125 13.125V8.125C11.3125 7.97582 11.3718 7.83274 11.4773 7.72725C11.5827 7.62176 11.7258 7.5625 11.875 7.5625C12.0242 7.5625 12.1673 7.62176 12.2727 7.72725C12.3782 7.83274 12.4375 7.97582 12.4375 8.125Z" fill="#D42620" stroke="white" stroke-width="0.125"/>
</svg>
