<svg width="20" height="20" viewBox="0 0 20 20" fill="none" xmlns="http://www.w3.org/2000/svg">
<path d="M17.8125 13.6717C17.7411 13.7124 17.6624 13.7386 17.5808 13.7489C17.4993 13.7591 17.4165 13.7532 17.3373 13.7314C17.258 13.7097 17.1839 13.6725 17.119 13.622C17.0542 13.5715 16.9999 13.5088 16.9593 13.4373L15.475 10.8436C14.612 11.4271 13.66 11.8666 12.6562 12.1451L13.1148 14.8967C13.1283 14.9777 13.1258 15.0606 13.1073 15.1406C13.0887 15.2206 13.0546 15.2962 13.0069 15.363C12.9592 15.4298 12.8987 15.4866 12.829 15.53C12.7593 15.5735 12.6818 15.6028 12.6007 15.6162C12.5674 15.6217 12.5337 15.6245 12.5 15.6248C12.3521 15.6246 12.2091 15.572 12.0964 15.4763C11.9837 15.3806 11.9085 15.248 11.8843 15.1022L11.4336 12.4006C10.4829 12.5329 9.51856 12.5329 8.56793 12.4006L8.11715 15.1022C8.09289 15.2483 8.01753 15.381 7.90449 15.4768C7.79145 15.5725 7.64809 15.625 7.49996 15.6248C7.46541 15.6247 7.43093 15.6218 7.39684 15.6162C7.31582 15.6028 7.23825 15.5735 7.16856 15.53C7.09887 15.4866 7.03843 15.4298 6.99068 15.363C6.94294 15.2962 6.90884 15.2206 6.89032 15.1406C6.87181 15.0606 6.86924 14.9777 6.88277 14.8967L7.34371 12.1451C6.3403 11.8657 5.38887 11.4254 4.52652 10.8412L3.04684 13.4373C2.96396 13.5817 2.8271 13.6873 2.66637 13.7308C2.50565 13.7743 2.33422 13.7522 2.1898 13.6693C2.04539 13.5865 1.93981 13.4496 1.89629 13.2889C1.85278 13.1282 1.87489 12.9567 1.95777 12.8123L3.52027 10.0779C2.97144 9.60378 2.46677 9.0808 2.01246 8.51544C1.9558 8.45218 1.91263 8.37803 1.88558 8.29754C1.85853 8.21704 1.84817 8.13187 1.85513 8.04723C1.86209 7.9626 1.88622 7.88027 1.92606 7.80527C1.9659 7.73027 2.0206 7.66418 2.08683 7.61102C2.15306 7.55787 2.22943 7.51877 2.31127 7.49611C2.39311 7.47345 2.47872 7.46771 2.56285 7.47924C2.64699 7.49076 2.72789 7.51932 2.80063 7.56315C2.87336 7.60698 2.9364 7.66518 2.9859 7.73419C4.28277 9.33887 6.55152 11.2498 9.99996 11.2498C13.4484 11.2498 15.7171 9.33653 17.014 7.73419C17.063 7.66377 17.1259 7.60417 17.1988 7.5591C17.2718 7.51403 17.3532 7.48446 17.4381 7.47222C17.5229 7.45998 17.6094 7.46534 17.6921 7.48795C17.7749 7.51057 17.852 7.54997 17.9189 7.6037C17.9857 7.65742 18.0408 7.72432 18.0806 7.80024C18.1205 7.87616 18.1443 7.95947 18.1506 8.04499C18.1569 8.13051 18.1455 8.21641 18.1172 8.29734C18.0888 8.37828 18.0442 8.45251 17.9859 8.51544C17.5316 9.0808 17.0269 9.60378 16.4781 10.0779L18.0406 12.8123C18.0825 12.8836 18.1099 12.9625 18.1211 13.0444C18.1324 13.1264 18.1272 13.2097 18.106 13.2896C18.0848 13.3696 18.0479 13.4445 17.9975 13.5101C17.9471 13.5757 17.8842 13.6306 17.8125 13.6717Z" fill="#343330"/>
</svg>
