<svg width="20" height="20" viewBox="0 0 20 20" fill="none" xmlns="http://www.w3.org/2000/svg">
<path d="M13.1245 17.5C13.1245 17.6658 13.0587 17.8247 12.9415 17.9419C12.8243 18.0592 12.6653 18.125 12.4995 18.125H7.49953C7.33377 18.125 7.1748 18.0592 7.05759 17.9419C6.94038 17.8247 6.87453 17.6658 6.87453 17.5C6.87453 17.3342 6.94038 17.1753 7.05759 17.0581C7.1748 16.9408 7.33377 16.875 7.49953 16.875H12.4995C12.6653 16.875 12.8243 16.9408 12.9415 17.0581C13.0587 17.1753 13.1245 17.3342 13.1245 17.5ZM17.3316 15C17.2231 15.191 17.0657 15.3497 16.8755 15.4595C16.6853 15.5694 16.4692 15.6265 16.2495 15.625H3.74953C3.5298 15.6247 3.31402 15.5665 3.12395 15.4562C2.93389 15.346 2.77624 15.1875 2.66692 14.9969C2.55759 14.8063 2.50044 14.5903 2.50123 14.3705C2.50202 14.1508 2.56072 13.9351 2.67141 13.7453C3.105 12.9984 3.74953 10.8859 3.74953 8.125C3.74953 6.4674 4.40801 4.87769 5.58012 3.70558C6.75222 2.53348 8.34193 1.875 9.99953 1.875C11.6571 1.875 13.2469 2.53348 14.419 3.70558C15.5911 4.87769 16.2495 6.4674 16.2495 8.125C16.2495 10.8852 16.8948 12.9984 17.3284 13.7453C17.4402 13.9354 17.4994 14.1518 17.4998 14.3723C17.5002 14.5929 17.4419 14.8095 17.3308 15H17.3316ZM16.2495 14.375C15.6456 13.3383 14.9995 10.9414 14.9995 8.125C14.9995 6.79892 14.4728 5.52715 13.5351 4.58947C12.5974 3.65178 11.3256 3.125 9.99953 3.125C8.67345 3.125 7.40168 3.65178 6.464 4.58947C5.52632 5.52715 4.99953 6.79892 4.99953 8.125C4.99953 10.9422 4.35266 13.3391 3.74953 14.375H16.2495Z" fill="#94A3B8"/>
</svg>
