<svg width="20" height="20" viewBox="0 0 20 20" fill="none" xmlns="http://www.w3.org/2000/svg">
<path d="M10 6.875C9.38193 6.875 8.77775 7.05828 8.26384 7.40166C7.74994 7.74504 7.3494 8.2331 7.11288 8.80411C6.87635 9.37513 6.81447 10.0035 6.93505 10.6097C7.05562 11.2158 7.35325 11.7727 7.79029 12.2097C8.22733 12.6467 8.78415 12.9444 9.39034 13.065C9.99653 13.1855 10.6249 13.1236 11.1959 12.8871C11.7669 12.6506 12.255 12.2501 12.5983 11.7362C12.9417 11.2223 13.125 10.6181 13.125 10C13.125 9.1712 12.7958 8.37634 12.2097 7.79029C11.6237 7.20424 10.8288 6.875 10 6.875ZM10 11.875C9.62916 11.875 9.26665 11.765 8.95831 11.559C8.64996 11.353 8.40964 11.0601 8.26773 10.7175C8.12581 10.3749 8.08868 9.99792 8.16103 9.63421C8.23337 9.27049 8.41195 8.9364 8.67417 8.67417C8.9364 8.41195 9.27049 8.23337 9.63421 8.16103C9.99792 8.08868 10.3749 8.12581 10.7175 8.26773C11.0601 8.40964 11.353 8.64996 11.559 8.95831C11.765 9.26665 11.875 9.62916 11.875 10C11.875 10.4973 11.6775 10.9742 11.3258 11.3258C10.9742 11.6775 10.4973 11.875 10 11.875ZM18.75 4.375H1.25C1.08424 4.375 0.925268 4.44085 0.808058 4.55806C0.690848 4.67527 0.625 4.83424 0.625 5V15C0.625 15.1658 0.690848 15.3247 0.808058 15.4419C0.925268 15.5592 1.08424 15.625 1.25 15.625H18.75C18.9158 15.625 19.0747 15.5592 19.1919 15.4419C19.3092 15.3247 19.375 15.1658 19.375 15V5C19.375 4.83424 19.3092 4.67527 19.1919 4.55806C19.0747 4.44085 18.9158 4.375 18.75 4.375ZM15.1289 14.375H4.87109C4.66125 13.6653 4.27719 13.0194 3.75389 12.4961C3.23059 11.9728 2.58468 11.5887 1.875 11.3789V8.62109C2.58468 8.41125 3.23059 8.02719 3.75389 7.50389C4.27719 6.98059 4.66125 6.33468 4.87109 5.625H15.1289C15.3387 6.33468 15.7228 6.98059 16.2461 7.50389C16.7694 8.02719 17.4153 8.41125 18.125 8.62109V11.3789C17.4153 11.5887 16.7694 11.9728 16.2461 12.4961C15.7228 13.0194 15.3387 13.6653 15.1289 14.375ZM18.125 7.29453C17.3753 6.97218 16.7778 6.37466 16.4555 5.625H18.125V7.29453ZM3.54453 5.625C3.22218 6.37466 2.62466 6.97218 1.875 7.29453V5.625H3.54453ZM1.875 12.7055C2.62466 13.0278 3.22218 13.6253 3.54453 14.375H1.875V12.7055ZM16.4555 14.375C16.7778 13.6253 17.3753 13.0278 18.125 12.7055V14.375H16.4555Z" fill="#94A3B8"/>
</svg>
