<svg width="32" height="32" viewBox="0 0 32 32" fill="none" xmlns="http://www.w3.org/2000/svg">
<path d="M29.2978 26.2498C27.584 23.242 24.9079 20.8983 21.7003 19.5961C23.2954 18.3998 24.4737 16.7319 25.0682 14.8287C25.6627 12.9255 25.6433 10.8835 25.0128 8.99193C24.3823 7.10037 23.1726 5.45514 21.555 4.28929C19.9375 3.12345 17.9942 2.49609 16.0003 2.49609C14.0064 2.49609 12.0631 3.12345 10.4456 4.28929C8.82803 5.45514 7.61833 7.10037 6.98781 8.99193C6.35729 10.8835 6.33791 12.9255 6.93242 14.8287C7.52693 16.7319 8.70519 18.3998 10.3003 19.5961C7.0927 20.8983 4.4166 23.242 2.7028 26.2498C2.59661 26.4206 2.52583 26.611 2.49467 26.8096C2.46352 27.0083 2.47263 27.2112 2.52145 27.4062C2.57028 27.6013 2.65782 27.7845 2.77888 27.9451C2.89995 28.1057 3.05206 28.2402 3.22617 28.3408C3.40028 28.4414 3.59284 28.506 3.7924 28.5307C3.99196 28.5553 4.19445 28.5397 4.38782 28.4845C4.5812 28.4294 4.76152 28.3359 4.91806 28.2097C5.0746 28.0835 5.20416 27.9271 5.29905 27.7498C7.56405 23.8348 11.564 21.4998 16.0003 21.4998C20.4366 21.4998 24.4366 23.8361 26.7015 27.7498C26.9072 28.0805 27.2334 28.3182 27.6111 28.4128C27.9888 28.5073 28.3885 28.4513 28.7257 28.2565C29.0629 28.0617 29.3111 27.7434 29.4178 27.3689C29.5246 26.9945 29.4816 26.5932 29.2978 26.2498ZM9.5003 11.9998C9.5003 10.7143 9.88152 9.45756 10.5957 8.38864C11.31 7.31972 12.3251 6.4866 13.5129 5.99463C14.7006 5.50266 16.0075 5.37394 17.2684 5.62474C18.5293 5.87554 19.6875 6.49461 20.5965 7.40365C21.5055 8.31269 22.1246 9.47088 22.3754 10.7318C22.6262 11.9926 22.4975 13.2996 22.0055 14.4873C21.5135 15.675 20.6804 16.6902 19.6115 17.4044C18.5426 18.1186 17.2859 18.4998 16.0003 18.4998C14.277 18.4979 12.6249 17.8124 11.4063 16.5938C10.1877 15.3753 9.50228 13.7231 9.5003 11.9998Z" fill="#0D6EFD"/>
</svg>
