<svg width="20" height="20" viewBox="0 0 20 20" fill="none" xmlns="http://www.w3.org/2000/svg">
<path d="M16.6925 7.94192L10.4425 14.1919C10.3845 14.25 10.3156 14.2961 10.2397 14.3276C10.1638 14.359 10.0825 14.3752 10.0003 14.3752C9.91821 14.3752 9.83688 14.359 9.76101 14.3276C9.68514 14.2961 9.61621 14.25 9.55816 14.1919L3.30816 7.94192C3.19088 7.82465 3.125 7.66559 3.125 7.49974C3.125 7.33388 3.19088 7.17482 3.30816 7.05755C3.42544 6.94027 3.5845 6.87439 3.75035 6.87439C3.9162 6.87439 4.07526 6.94027 4.19253 7.05755L10.0003 12.8661L15.8082 7.05755C15.8662 6.99948 15.9352 6.95342 16.011 6.92199C16.0869 6.89056 16.1682 6.87439 16.2503 6.87439C16.3325 6.87439 16.4138 6.89056 16.4897 6.92199C16.5655 6.95342 16.6345 6.99948 16.6925 7.05755C16.7506 7.11562 16.7967 7.18456 16.8281 7.26043C16.8595 7.3363 16.8757 7.41762 16.8757 7.49974C16.8757 7.58186 16.8595 7.66318 16.8281 7.73905C16.7967 7.81492 16.7506 7.88386 16.6925 7.94192Z" fill="#343330"/>
</svg>
