<svg width="20" height="20" viewBox="0 0 20 20" fill="none" xmlns="http://www.w3.org/2000/svg">
<path d="M3.75 3.6875H3.6875V3.75V16.25V16.3125H3.75H8.125C8.27419 16.3125 8.41726 16.3718 8.52275 16.4773C8.62824 16.5827 8.6875 16.7258 8.6875 16.875C8.6875 17.0242 8.62824 17.1673 8.52275 17.2727C8.41726 17.3782 8.27419 17.4375 8.125 17.4375H3.75C3.43506 17.4375 3.13301 17.3124 2.91031 17.0897C2.68761 16.867 2.5625 16.5649 2.5625 16.25V3.75C2.5625 3.43506 2.68761 3.13301 2.91031 2.91031C3.13301 2.68761 3.43506 2.5625 3.75 2.5625H8.125C8.27418 2.5625 8.41726 2.62176 8.52275 2.72725C8.62824 2.83274 8.6875 2.97582 8.6875 3.125C8.6875 3.27418 8.62824 3.41726 8.52275 3.52275C8.41726 3.62824 8.27418 3.6875 8.125 3.6875H3.75ZM17.273 9.60201L17.273 9.60203C17.3253 9.65427 17.3668 9.71631 17.3951 9.7846C17.4234 9.85288 17.438 9.92608 17.438 10C17.438 10.0739 17.4234 10.1471 17.3951 10.2154C17.3668 10.2837 17.3253 10.3457 17.273 10.398L17.273 10.398L14.148 13.523C14.0424 13.6285 13.8993 13.6878 13.75 13.6878C13.6007 13.6878 13.4576 13.6285 13.352 13.523C13.2465 13.4174 13.1872 13.2743 13.1872 13.125C13.1872 12.9757 13.2464 12.8326 13.352 12.727C13.352 12.727 13.352 12.727 13.352 12.727L15.4106 10.6692L15.5173 10.5625H15.3664H8.125C7.97582 10.5625 7.83274 10.5032 7.72725 10.3977C7.62176 10.2923 7.5625 10.1492 7.5625 10C7.5625 9.85082 7.62176 9.70774 7.72725 9.60225C7.83274 9.49676 7.97582 9.4375 8.125 9.4375H15.3664H15.5173L15.4106 9.3308L13.352 7.27299C13.2465 7.16744 13.1872 7.02428 13.1872 6.875C13.1872 6.72572 13.2465 6.58256 13.352 6.47701C13.4576 6.37145 13.6007 6.31215 13.75 6.31215C13.8993 6.31215 14.0424 6.37145 14.148 6.47701L17.273 9.60201Z" fill="#475569" stroke="#475569" stroke-width="0.125"/>
</svg>
