<svg width="20" height="20" viewBox="0 0 20 20" fill="none" xmlns="http://www.w3.org/2000/svg">
<path d="M18.0411 16.5628C16.8513 14.5058 15.0177 13.0308 12.8779 12.3315C13.9363 11.7014 14.7587 10.7413 15.2187 9.59857C15.6786 8.45585 15.7508 7.19373 15.424 6.00604C15.0972 4.81835 14.3896 3.77076 13.4099 3.02414C12.4301 2.27753 11.2323 1.87317 10.0005 1.87317C8.7687 1.87317 7.57093 2.27753 6.59116 3.02414C5.61139 3.77076 4.90379 4.81835 4.57703 6.00604C4.25027 7.19373 4.32241 8.45585 4.78238 9.59857C5.24235 10.7413 6.06471 11.7014 7.12317 12.3315C4.98333 13.03 3.14974 14.505 1.95989 16.5628C1.91626 16.6339 1.88732 16.7131 1.87477 16.7956C1.86223 16.8781 1.86634 16.9623 1.88686 17.0432C1.90739 17.1241 1.9439 17.2001 1.99426 17.2666C2.04462 17.3332 2.1078 17.389 2.18007 17.4307C2.25234 17.4725 2.33224 17.4993 2.41505 17.5097C2.49787 17.5201 2.58192 17.5137 2.66225 17.4911C2.74258 17.4685 2.81756 17.43 2.88277 17.3779C2.94798 17.3258 3.0021 17.2611 3.04192 17.1878C4.5138 14.644 7.11536 13.1253 10.0005 13.1253C12.8857 13.1253 15.4872 14.644 16.9591 17.1878C16.9989 17.2611 17.0531 17.3258 17.1183 17.3779C17.1835 17.43 17.2584 17.4685 17.3388 17.4911C17.4191 17.5137 17.5032 17.5201 17.586 17.5097C17.6688 17.4993 17.7487 17.4725 17.821 17.4307C17.8932 17.389 17.9564 17.3332 18.0068 17.2666C18.0571 17.2001 18.0936 17.1241 18.1142 17.0432C18.1347 16.9623 18.1388 16.8781 18.1263 16.7956C18.1137 16.7131 18.0848 16.6339 18.0411 16.5628ZM5.62552 7.50029C5.62552 6.635 5.88211 5.78914 6.36284 5.06967C6.84357 4.35021 7.52685 3.78945 8.32628 3.45832C9.1257 3.12719 10.0054 3.04055 10.854 3.20936C11.7027 3.37817 12.4823 3.79485 13.0941 4.4067C13.706 5.01856 14.1226 5.79811 14.2915 6.64677C14.4603 7.49544 14.3736 8.37511 14.0425 9.17453C13.7114 9.97396 13.1506 10.6572 12.4311 11.138C11.7117 11.6187 10.8658 11.8753 10.0005 11.8753C8.84058 11.8741 7.7285 11.4127 6.9083 10.5925C6.08809 9.77231 5.62676 8.66024 5.62552 7.50029Z" fill="#94A3B8"/>
</svg>
